<svg xmlns="http://www.w3.org/2000/svg" version="1.1" xmlns:xlink="http://www.w3.org/1999/xlink" xmlns:svgjs="http://svgjs.dev/svgjs" viewBox="0 0 800 800"><defs><linearGradient gradientTransform="rotate(270)" x1="50%" y1="0%" x2="50%" y2="100%" id="sssquiggly-grad"><stop stop-color="hsla(0, 99%, 100%, 1)" stop-opacity="1" offset="0%"></stop><stop stop-color="hsl(105, 69%, 60%)" stop-opacity="1" offset="100%"></stop></linearGradient></defs><g stroke-width="2.5" stroke="hsla(50, 0%, 100%, 1)" fill="none" stroke-linecap="round" transform="matrix(1,0,0,1,-5,53.948965072631836)"><path d="M10,10C19.821428571428573,15.625,35.41666666666667,45.125,57.142857142857146,37C78.86904761904762,28.875,90.47619047619048,-26.916666666666668,114.28571428571429,-29C138.0952380952381,-31.083333333333332,147.61904761904765,24.5,171.42857142857144,27C195.23809523809524,29.5,204.76190476190476,-19.083333333333332,228.57142857142858,-17C252.3809523809524,-14.916666666666666,261.9047619047619,33.041666666666664,285.7142857142857,37C309.5238095238095,40.958333333333336,319.0476190476191,3.041666666666667,342.8571428571429,2C366.6666666666667,0.9583333333333333,376.1904761904762,31.791666666666668,400,32C423.8095238095238,32.208333333333336,433.33333333333337,1.3333333333333335,457.14285714285717,3C480.95238095238096,4.666666666666666,490.47619047619054,43.75,514.2857142857143,40C538.0952380952382,36.25,547.6190476190477,-18.333333333333332,571.4285714285714,-15C595.2380952380952,-11.666666666666668,604.7619047619047,52.458333333333336,628.5714285714286,56C652.3809523809524,59.541666666666664,661.9047619047619,2.833333333333333,685.7142857142858,2C709.5238095238096,1.1666666666666667,719.047619047619,53.041666666666664,742.8571428571429,52C766.6666666666667,50.958333333333336,788.0952380952381,8.458333333333332,800,-3"></path><path d="M10,10C19.821428571428573,15.625,35.41666666666667,45.125,57.142857142857146,37C78.86904761904762,28.875,90.47619047619048,-26.916666666666668,114.28571428571429,-29C138.0952380952381,-31.083333333333332,147.61904761904765,24.5,171.42857142857144,27C195.23809523809524,29.5,204.76190476190476,-19.083333333333332,228.57142857142858,-17C252.3809523809524,-14.916666666666666,261.9047619047619,33.041666666666664,285.7142857142857,37C309.5238095238095,40.958333333333336,319.0476190476191,3.041666666666667,342.8571428571429,2C366.6666666666667,0.9583333333333333,376.1904761904762,31.791666666666668,400,32C423.8095238095238,32.208333333333336,433.33333333333337,1.3333333333333335,457.14285714285717,3C480.95238095238096,4.666666666666666,490.47619047619054,43.75,514.2857142857143,40C538.0952380952382,36.25,547.6190476190477,-18.333333333333332,571.4285714285714,-15C595.2380952380952,-11.666666666666668,604.7619047619047,52.458333333333336,628.5714285714286,56C652.3809523809524,59.541666666666664,661.9047619047619,2.833333333333333,685.7142857142858,2C709.5238095238096,1.1666666666666667,719.047619047619,53.041666666666664,742.8571428571429,52C766.6666666666667,50.958333333333336,788.0952380952381,8.458333333333332,800,-3" transform="matrix(1,0,0,1,0,665)"></path><path d="M10,10C19.821428571428573,15.625,35.41666666666667,45.125,57.142857142857146,37C78.86904761904762,28.875,90.47619047619048,-26.916666666666668,114.28571428571429,-29C138.0952380952381,-31.083333333333332,147.61904761904765,24.5,171.42857142857144,27C195.23809523809524,29.5,204.76190476190476,-19.083333333333332,228.57142857142858,-17C252.3809523809524,-14.916666666666666,261.9047619047619,33.041666666666664,285.7142857142857,37C309.5238095238095,40.958333333333336,319.0476190476191,3.041666666666667,342.8571428571429,2C366.6666666666667,0.9583333333333333,376.1904761904762,31.791666666666668,400,32C423.8095238095238,32.208333333333336,433.33333333333337,1.3333333333333335,457.14285714285717,3C480.95238095238096,4.666666666666666,490.47619047619054,43.75,514.2857142857143,40C538.0952380952382,36.25,547.6190476190477,-18.333333333333332,571.4285714285714,-15C595.2380952380952,-11.666666666666668,604.7619047619047,52.458333333333336,628.5714285714286,56C652.3809523809524,59.541666666666664,661.9047619047619,2.833333333333333,685.7142857142858,2C709.5238095238096,1.1666666666666667,719.047619047619,53.041666666666664,742.8571428571429,52C766.6666666666667,50.958333333333336,788.0952380952381,8.458333333333332,800,-3" transform="matrix(1,0,0,1,0,630)"></path><path d="M10,10C19.821428571428573,15.625,35.41666666666667,45.125,57.142857142857146,37C78.86904761904762,28.875,90.47619047619048,-26.916666666666668,114.28571428571429,-29C138.0952380952381,-31.083333333333332,147.61904761904765,24.5,171.42857142857144,27C195.23809523809524,29.5,204.76190476190476,-19.083333333333332,228.57142857142858,-17C252.3809523809524,-14.916666666666666,261.9047619047619,33.041666666666664,285.7142857142857,37C309.5238095238095,40.958333333333336,319.0476190476191,3.041666666666667,342.8571428571429,2C366.6666666666667,0.9583333333333333,376.1904761904762,31.791666666666668,400,32C423.8095238095238,32.208333333333336,433.33333333333337,1.3333333333333335,457.14285714285717,3C480.95238095238096,4.666666666666666,490.47619047619054,43.75,514.2857142857143,40C538.0952380952382,36.25,547.6190476190477,-18.333333333333332,571.4285714285714,-15C595.2380952380952,-11.666666666666668,604.7619047619047,52.458333333333336,628.5714285714286,56C652.3809523809524,59.541666666666664,661.9047619047619,2.833333333333333,685.7142857142858,2C709.5238095238096,1.1666666666666667,719.047619047619,53.041666666666664,742.8571428571429,52C766.6666666666667,50.958333333333336,788.0952380952381,8.458333333333332,800,-3" transform="matrix(1,0,0,1,0,595)"></path><path d="M10,10C19.821428571428573,15.625,35.41666666666667,45.125,57.142857142857146,37C78.86904761904762,28.875,90.47619047619048,-26.916666666666668,114.28571428571429,-29C138.0952380952381,-31.083333333333332,147.61904761904765,24.5,171.42857142857144,27C195.23809523809524,29.5,204.76190476190476,-19.083333333333332,228.57142857142858,-17C252.3809523809524,-14.916666666666666,261.9047619047619,33.041666666666664,285.7142857142857,37C309.5238095238095,40.958333333333336,319.0476190476191,3.041666666666667,342.8571428571429,2C366.6666666666667,0.9583333333333333,376.1904761904762,31.791666666666668,400,32C423.8095238095238,32.208333333333336,433.33333333333337,1.3333333333333335,457.14285714285717,3C480.95238095238096,4.666666666666666,490.47619047619054,43.75,514.2857142857143,40C538.0952380952382,36.25,547.6190476190477,-18.333333333333332,571.4285714285714,-15C595.2380952380952,-11.666666666666668,604.7619047619047,52.458333333333336,628.5714285714286,56C652.3809523809524,59.541666666666664,661.9047619047619,2.833333333333333,685.7142857142858,2C709.5238095238096,1.1666666666666667,719.047619047619,53.041666666666664,742.8571428571429,52C766.6666666666667,50.958333333333336,788.0952380952381,8.458333333333332,800,-3" transform="matrix(1,0,0,1,0,560)"></path><path d="M10,10C19.821428571428573,15.625,35.41666666666667,45.125,57.142857142857146,37C78.86904761904762,28.875,90.47619047619048,-26.916666666666668,114.28571428571429,-29C138.0952380952381,-31.083333333333332,147.61904761904765,24.5,171.42857142857144,27C195.23809523809524,29.5,204.76190476190476,-19.083333333333332,228.57142857142858,-17C252.3809523809524,-14.916666666666666,261.9047619047619,33.041666666666664,285.7142857142857,37C309.5238095238095,40.958333333333336,319.0476190476191,3.041666666666667,342.8571428571429,2C366.6666666666667,0.9583333333333333,376.1904761904762,31.791666666666668,400,32C423.8095238095238,32.208333333333336,433.33333333333337,1.3333333333333335,457.14285714285717,3C480.95238095238096,4.666666666666666,490.47619047619054,43.75,514.2857142857143,40C538.0952380952382,36.25,547.6190476190477,-18.333333333333332,571.4285714285714,-15C595.2380952380952,-11.666666666666668,604.7619047619047,52.458333333333336,628.5714285714286,56C652.3809523809524,59.541666666666664,661.9047619047619,2.833333333333333,685.7142857142858,2C709.5238095238096,1.1666666666666667,719.047619047619,53.041666666666664,742.8571428571429,52C766.6666666666667,50.958333333333336,788.0952380952381,8.458333333333332,800,-3" transform="matrix(1,0,0,1,0,525)"></path><path d="M10,10C19.821428571428573,15.625,35.41666666666667,45.125,57.142857142857146,37C78.86904761904762,28.875,90.47619047619048,-26.916666666666668,114.28571428571429,-29C138.0952380952381,-31.083333333333332,147.61904761904765,24.5,171.42857142857144,27C195.23809523809524,29.5,204.76190476190476,-19.083333333333332,228.57142857142858,-17C252.3809523809524,-14.916666666666666,261.9047619047619,33.041666666666664,285.7142857142857,37C309.5238095238095,40.958333333333336,319.0476190476191,3.041666666666667,342.8571428571429,2C366.6666666666667,0.9583333333333333,376.1904761904762,31.791666666666668,400,32C423.8095238095238,32.208333333333336,433.33333333333337,1.3333333333333335,457.14285714285717,3C480.95238095238096,4.666666666666666,490.47619047619054,43.75,514.2857142857143,40C538.0952380952382,36.25,547.6190476190477,-18.333333333333332,571.4285714285714,-15C595.2380952380952,-11.666666666666668,604.7619047619047,52.458333333333336,628.5714285714286,56C652.3809523809524,59.541666666666664,661.9047619047619,2.833333333333333,685.7142857142858,2C709.5238095238096,1.1666666666666667,719.047619047619,53.041666666666664,742.8571428571429,52C766.6666666666667,50.958333333333336,788.0952380952381,8.458333333333332,800,-3" transform="matrix(1,0,0,1,0,490)"></path><path d="M10,10C19.821428571428573,15.625,35.41666666666667,45.125,57.142857142857146,37C78.86904761904762,28.875,90.47619047619048,-26.916666666666668,114.28571428571429,-29C138.0952380952381,-31.083333333333332,147.61904761904765,24.5,171.42857142857144,27C195.23809523809524,29.5,204.76190476190476,-19.083333333333332,228.57142857142858,-17C252.3809523809524,-14.916666666666666,261.9047619047619,33.041666666666664,285.7142857142857,37C309.5238095238095,40.958333333333336,319.0476190476191,3.041666666666667,342.8571428571429,2C366.6666666666667,0.9583333333333333,376.1904761904762,31.791666666666668,400,32C423.8095238095238,32.208333333333336,433.33333333333337,1.3333333333333335,457.14285714285717,3C480.95238095238096,4.666666666666666,490.47619047619054,43.75,514.2857142857143,40C538.0952380952382,36.25,547.6190476190477,-18.333333333333332,571.4285714285714,-15C595.2380952380952,-11.666666666666668,604.7619047619047,52.458333333333336,628.5714285714286,56C652.3809523809524,59.541666666666664,661.9047619047619,2.833333333333333,685.7142857142858,2C709.5238095238096,1.1666666666666667,719.047619047619,53.041666666666664,742.8571428571429,52C766.6666666666667,50.958333333333336,788.0952380952381,8.458333333333332,800,-3" transform="matrix(1,0,0,1,0,455)"></path><path d="M10,10C19.821428571428573,15.625,35.41666666666667,45.125,57.142857142857146,37C78.86904761904762,28.875,90.47619047619048,-26.916666666666668,114.28571428571429,-29C138.0952380952381,-31.083333333333332,147.61904761904765,24.5,171.42857142857144,27C195.23809523809524,29.5,204.76190476190476,-19.083333333333332,228.57142857142858,-17C252.3809523809524,-14.916666666666666,261.9047619047619,33.041666666666664,285.7142857142857,37C309.5238095238095,40.958333333333336,319.0476190476191,3.041666666666667,342.8571428571429,2C366.6666666666667,0.9583333333333333,376.1904761904762,31.791666666666668,400,32C423.8095238095238,32.208333333333336,433.33333333333337,1.3333333333333335,457.14285714285717,3C480.95238095238096,4.666666666666666,490.47619047619054,43.75,514.2857142857143,40C538.0952380952382,36.25,547.6190476190477,-18.333333333333332,571.4285714285714,-15C595.2380952380952,-11.666666666666668,604.7619047619047,52.458333333333336,628.5714285714286,56C652.3809523809524,59.541666666666664,661.9047619047619,2.833333333333333,685.7142857142858,2C709.5238095238096,1.1666666666666667,719.047619047619,53.041666666666664,742.8571428571429,52C766.6666666666667,50.958333333333336,788.0952380952381,8.458333333333332,800,-3" transform="matrix(1,0,0,1,0,420)"></path><path d="M10,10C19.821428571428573,15.625,35.41666666666667,45.125,57.142857142857146,37C78.86904761904762,28.875,90.47619047619048,-26.916666666666668,114.28571428571429,-29C138.0952380952381,-31.083333333333332,147.61904761904765,24.5,171.42857142857144,27C195.23809523809524,29.5,204.76190476190476,-19.083333333333332,228.57142857142858,-17C252.3809523809524,-14.916666666666666,261.9047619047619,33.041666666666664,285.7142857142857,37C309.5238095238095,40.958333333333336,319.0476190476191,3.041666666666667,342.8571428571429,2C366.6666666666667,0.9583333333333333,376.1904761904762,31.791666666666668,400,32C423.8095238095238,32.208333333333336,433.33333333333337,1.3333333333333335,457.14285714285717,3C480.95238095238096,4.666666666666666,490.47619047619054,43.75,514.2857142857143,40C538.0952380952382,36.25,547.6190476190477,-18.333333333333332,571.4285714285714,-15C595.2380952380952,-11.666666666666668,604.7619047619047,52.458333333333336,628.5714285714286,56C652.3809523809524,59.541666666666664,661.9047619047619,2.833333333333333,685.7142857142858,2C709.5238095238096,1.1666666666666667,719.047619047619,53.041666666666664,742.8571428571429,52C766.6666666666667,50.958333333333336,788.0952380952381,8.458333333333332,800,-3" transform="matrix(1,0,0,1,0,385)"></path><path d="M10,10C19.821428571428573,15.625,35.41666666666667,45.125,57.142857142857146,37C78.86904761904762,28.875,90.47619047619048,-26.916666666666668,114.28571428571429,-29C138.0952380952381,-31.083333333333332,147.61904761904765,24.5,171.42857142857144,27C195.23809523809524,29.5,204.76190476190476,-19.083333333333332,228.57142857142858,-17C252.3809523809524,-14.916666666666666,261.9047619047619,33.041666666666664,285.7142857142857,37C309.5238095238095,40.958333333333336,319.0476190476191,3.041666666666667,342.8571428571429,2C366.6666666666667,0.9583333333333333,376.1904761904762,31.791666666666668,400,32C423.8095238095238,32.208333333333336,433.33333333333337,1.3333333333333335,457.14285714285717,3C480.95238095238096,4.666666666666666,490.47619047619054,43.75,514.2857142857143,40C538.0952380952382,36.25,547.6190476190477,-18.333333333333332,571.4285714285714,-15C595.2380952380952,-11.666666666666668,604.7619047619047,52.458333333333336,628.5714285714286,56C652.3809523809524,59.541666666666664,661.9047619047619,2.833333333333333,685.7142857142858,2C709.5238095238096,1.1666666666666667,719.047619047619,53.041666666666664,742.8571428571429,52C766.6666666666667,50.958333333333336,788.0952380952381,8.458333333333332,800,-3" transform="matrix(1,0,0,1,0,350)"></path><path d="M10,10C19.821428571428573,15.625,35.41666666666667,45.125,57.142857142857146,37C78.86904761904762,28.875,90.47619047619048,-26.916666666666668,114.28571428571429,-29C138.0952380952381,-31.083333333333332,147.61904761904765,24.5,171.42857142857144,27C195.23809523809524,29.5,204.76190476190476,-19.083333333333332,228.57142857142858,-17C252.3809523809524,-14.916666666666666,261.9047619047619,33.041666666666664,285.7142857142857,37C309.5238095238095,40.958333333333336,319.0476190476191,3.041666666666667,342.8571428571429,2C366.6666666666667,0.9583333333333333,376.1904761904762,31.791666666666668,400,32C423.8095238095238,32.208333333333336,433.33333333333337,1.3333333333333335,457.14285714285717,3C480.95238095238096,4.666666666666666,490.47619047619054,43.75,514.2857142857143,40C538.0952380952382,36.25,547.6190476190477,-18.333333333333332,571.4285714285714,-15C595.2380952380952,-11.666666666666668,604.7619047619047,52.458333333333336,628.5714285714286,56C652.3809523809524,59.541666666666664,661.9047619047619,2.833333333333333,685.7142857142858,2C709.5238095238096,1.1666666666666667,719.047619047619,53.041666666666664,742.8571428571429,52C766.6666666666667,50.958333333333336,788.0952380952381,8.458333333333332,800,-3" transform="matrix(1,0,0,1,0,315)"></path><path d="M10,10C19.821428571428573,15.625,35.41666666666667,45.125,57.142857142857146,37C78.86904761904762,28.875,90.47619047619048,-26.916666666666668,114.28571428571429,-29C138.0952380952381,-31.083333333333332,147.61904761904765,24.5,171.42857142857144,27C195.23809523809524,29.5,204.76190476190476,-19.083333333333332,228.57142857142858,-17C252.3809523809524,-14.916666666666666,261.9047619047619,33.041666666666664,285.7142857142857,37C309.5238095238095,40.958333333333336,319.0476190476191,3.041666666666667,342.8571428571429,2C366.6666666666667,0.9583333333333333,376.1904761904762,31.791666666666668,400,32C423.8095238095238,32.208333333333336,433.33333333333337,1.3333333333333335,457.14285714285717,3C480.95238095238096,4.666666666666666,490.47619047619054,43.75,514.2857142857143,40C538.0952380952382,36.25,547.6190476190477,-18.333333333333332,571.4285714285714,-15C595.2380952380952,-11.666666666666668,604.7619047619047,52.458333333333336,628.5714285714286,56C652.3809523809524,59.541666666666664,661.9047619047619,2.833333333333333,685.7142857142858,2C709.5238095238096,1.1666666666666667,719.047619047619,53.041666666666664,742.8571428571429,52C766.6666666666667,50.958333333333336,788.0952380952381,8.458333333333332,800,-3" transform="matrix(1,0,0,1,0,280)"></path><path d="M10,10C19.821428571428573,15.625,35.41666666666667,45.125,57.142857142857146,37C78.86904761904762,28.875,90.47619047619048,-26.916666666666668,114.28571428571429,-29C138.0952380952381,-31.083333333333332,147.61904761904765,24.5,171.42857142857144,27C195.23809523809524,29.5,204.76190476190476,-19.083333333333332,228.57142857142858,-17C252.3809523809524,-14.916666666666666,261.9047619047619,33.041666666666664,285.7142857142857,37C309.5238095238095,40.958333333333336,319.0476190476191,3.041666666666667,342.8571428571429,2C366.6666666666667,0.9583333333333333,376.1904761904762,31.791666666666668,400,32C423.8095238095238,32.208333333333336,433.33333333333337,1.3333333333333335,457.14285714285717,3C480.95238095238096,4.666666666666666,490.47619047619054,43.75,514.2857142857143,40C538.0952380952382,36.25,547.6190476190477,-18.333333333333332,571.4285714285714,-15C595.2380952380952,-11.666666666666668,604.7619047619047,52.458333333333336,628.5714285714286,56C652.3809523809524,59.541666666666664,661.9047619047619,2.833333333333333,685.7142857142858,2C709.5238095238096,1.1666666666666667,719.047619047619,53.041666666666664,742.8571428571429,52C766.6666666666667,50.958333333333336,788.0952380952381,8.458333333333332,800,-3" transform="matrix(1,0,0,1,0,245)"></path><path d="M10,10C19.821428571428573,15.625,35.41666666666667,45.125,57.142857142857146,37C78.86904761904762,28.875,90.47619047619048,-26.916666666666668,114.28571428571429,-29C138.0952380952381,-31.083333333333332,147.61904761904765,24.5,171.42857142857144,27C195.23809523809524,29.5,204.76190476190476,-19.083333333333332,228.57142857142858,-17C252.3809523809524,-14.916666666666666,261.9047619047619,33.041666666666664,285.7142857142857,37C309.5238095238095,40.958333333333336,319.0476190476191,3.041666666666667,342.8571428571429,2C366.6666666666667,0.9583333333333333,376.1904761904762,31.791666666666668,400,32C423.8095238095238,32.208333333333336,433.33333333333337,1.3333333333333335,457.14285714285717,3C480.95238095238096,4.666666666666666,490.47619047619054,43.75,514.2857142857143,40C538.0952380952382,36.25,547.6190476190477,-18.333333333333332,571.4285714285714,-15C595.2380952380952,-11.666666666666668,604.7619047619047,52.458333333333336,628.5714285714286,56C652.3809523809524,59.541666666666664,661.9047619047619,2.833333333333333,685.7142857142858,2C709.5238095238096,1.1666666666666667,719.047619047619,53.041666666666664,742.8571428571429,52C766.6666666666667,50.958333333333336,788.0952380952381,8.458333333333332,800,-3" transform="matrix(1,0,0,1,0,210)"></path><path d="M10,10C19.821428571428573,15.625,35.41666666666667,45.125,57.142857142857146,37C78.86904761904762,28.875,90.47619047619048,-26.916666666666668,114.28571428571429,-29C138.0952380952381,-31.083333333333332,147.61904761904765,24.5,171.42857142857144,27C195.23809523809524,29.5,204.76190476190476,-19.083333333333332,228.57142857142858,-17C252.3809523809524,-14.916666666666666,261.9047619047619,33.041666666666664,285.7142857142857,37C309.5238095238095,40.958333333333336,319.0476190476191,3.041666666666667,342.8571428571429,2C366.6666666666667,0.9583333333333333,376.1904761904762,31.791666666666668,400,32C423.8095238095238,32.208333333333336,433.33333333333337,1.3333333333333335,457.14285714285717,3C480.95238095238096,4.666666666666666,490.47619047619054,43.75,514.2857142857143,40C538.0952380952382,36.25,547.6190476190477,-18.333333333333332,571.4285714285714,-15C595.2380952380952,-11.666666666666668,604.7619047619047,52.458333333333336,628.5714285714286,56C652.3809523809524,59.541666666666664,661.9047619047619,2.833333333333333,685.7142857142858,2C709.5238095238096,1.1666666666666667,719.047619047619,53.041666666666664,742.8571428571429,52C766.6666666666667,50.958333333333336,788.0952380952381,8.458333333333332,800,-3" transform="matrix(1,0,0,1,0,175)"></path><path d="M10,10C19.821428571428573,15.625,35.41666666666667,45.125,57.142857142857146,37C78.86904761904762,28.875,90.47619047619048,-26.916666666666668,114.28571428571429,-29C138.0952380952381,-31.083333333333332,147.61904761904765,24.5,171.42857142857144,27C195.23809523809524,29.5,204.76190476190476,-19.083333333333332,228.57142857142858,-17C252.3809523809524,-14.916666666666666,261.9047619047619,33.041666666666664,285.7142857142857,37C309.5238095238095,40.958333333333336,319.0476190476191,3.041666666666667,342.8571428571429,2C366.6666666666667,0.9583333333333333,376.1904761904762,31.791666666666668,400,32C423.8095238095238,32.208333333333336,433.33333333333337,1.3333333333333335,457.14285714285717,3C480.95238095238096,4.666666666666666,490.47619047619054,43.75,514.2857142857143,40C538.0952380952382,36.25,547.6190476190477,-18.333333333333332,571.4285714285714,-15C595.2380952380952,-11.666666666666668,604.7619047619047,52.458333333333336,628.5714285714286,56C652.3809523809524,59.541666666666664,661.9047619047619,2.833333333333333,685.7142857142858,2C709.5238095238096,1.1666666666666667,719.047619047619,53.041666666666664,742.8571428571429,52C766.6666666666667,50.958333333333336,788.0952380952381,8.458333333333332,800,-3" transform="matrix(1,0,0,1,0,140)"></path><path d="M10,10C19.821428571428573,15.625,35.41666666666667,45.125,57.142857142857146,37C78.86904761904762,28.875,90.47619047619048,-26.916666666666668,114.28571428571429,-29C138.0952380952381,-31.083333333333332,147.61904761904765,24.5,171.42857142857144,27C195.23809523809524,29.5,204.76190476190476,-19.083333333333332,228.57142857142858,-17C252.3809523809524,-14.916666666666666,261.9047619047619,33.041666666666664,285.7142857142857,37C309.5238095238095,40.958333333333336,319.0476190476191,3.041666666666667,342.8571428571429,2C366.6666666666667,0.9583333333333333,376.1904761904762,31.791666666666668,400,32C423.8095238095238,32.208333333333336,433.33333333333337,1.3333333333333335,457.14285714285717,3C480.95238095238096,4.666666666666666,490.47619047619054,43.75,514.2857142857143,40C538.0952380952382,36.25,547.6190476190477,-18.333333333333332,571.4285714285714,-15C595.2380952380952,-11.666666666666668,604.7619047619047,52.458333333333336,628.5714285714286,56C652.3809523809524,59.541666666666664,661.9047619047619,2.833333333333333,685.7142857142858,2C709.5238095238096,1.1666666666666667,719.047619047619,53.041666666666664,742.8571428571429,52C766.6666666666667,50.958333333333336,788.0952380952381,8.458333333333332,800,-3" transform="matrix(1,0,0,1,0,105)"></path><path d="M10,10C19.821428571428573,15.625,35.41666666666667,45.125,57.142857142857146,37C78.86904761904762,28.875,90.47619047619048,-26.916666666666668,114.28571428571429,-29C138.0952380952381,-31.083333333333332,147.61904761904765,24.5,171.42857142857144,27C195.23809523809524,29.5,204.76190476190476,-19.083333333333332,228.57142857142858,-17C252.3809523809524,-14.916666666666666,261.9047619047619,33.041666666666664,285.7142857142857,37C309.5238095238095,40.958333333333336,319.0476190476191,3.041666666666667,342.8571428571429,2C366.6666666666667,0.9583333333333333,376.1904761904762,31.791666666666668,400,32C423.8095238095238,32.208333333333336,433.33333333333337,1.3333333333333335,457.14285714285717,3C480.95238095238096,4.666666666666666,490.47619047619054,43.75,514.2857142857143,40C538.0952380952382,36.25,547.6190476190477,-18.333333333333332,571.4285714285714,-15C595.2380952380952,-11.666666666666668,604.7619047619047,52.458333333333336,628.5714285714286,56C652.3809523809524,59.541666666666664,661.9047619047619,2.833333333333333,685.7142857142858,2C709.5238095238096,1.1666666666666667,719.047619047619,53.041666666666664,742.8571428571429,52C766.6666666666667,50.958333333333336,788.0952380952381,8.458333333333332,800,-3" transform="matrix(1,0,0,1,0,70)"></path><path d="M10,10C19.821428571428573,15.625,35.41666666666667,45.125,57.142857142857146,37C78.86904761904762,28.875,90.47619047619048,-26.916666666666668,114.28571428571429,-29C138.0952380952381,-31.083333333333332,147.61904761904765,24.5,171.42857142857144,27C195.23809523809524,29.5,204.76190476190476,-19.083333333333332,228.57142857142858,-17C252.3809523809524,-14.916666666666666,261.9047619047619,33.041666666666664,285.7142857142857,37C309.5238095238095,40.958333333333336,319.0476190476191,3.041666666666667,342.8571428571429,2C366.6666666666667,0.9583333333333333,376.1904761904762,31.791666666666668,400,32C423.8095238095238,32.208333333333336,433.33333333333337,1.3333333333333335,457.14285714285717,3C480.95238095238096,4.666666666666666,490.47619047619054,43.75,514.2857142857143,40C538.0952380952382,36.25,547.6190476190477,-18.333333333333332,571.4285714285714,-15C595.2380952380952,-11.666666666666668,604.7619047619047,52.458333333333336,628.5714285714286,56C652.3809523809524,59.541666666666664,661.9047619047619,2.833333333333333,685.7142857142858,2C709.5238095238096,1.1666666666666667,719.047619047619,53.041666666666664,742.8571428571429,52C766.6666666666667,50.958333333333336,788.0952380952381,8.458333333333332,800,-3" transform="matrix(1,0,0,1,0,35)"></path></g></svg>